<mxfile host="app.diagrams.net" agent="Mozilla/5.0 (Windows NT 10.0; Win64; x64) AppleWebKit/537.36 (KHTML, like Gecko) Chrome/130.0.0.0 Safari/537.36" version="24.8.3" pages="4">
  <diagram name="第 1 页" id="crvU9AyuA6FRaIp4Mdna">
    <mxGraphModel dx="1434" dy="780" grid="1" gridSize="10" guides="1" tooltips="1" connect="1" arrows="1" fold="1" page="1" pageScale="1" pageWidth="827" pageHeight="1169" math="0" shadow="0">
      <root>
        <mxCell id="0" />
        <mxCell id="1" parent="0" />
        <mxCell id="vatDivCXkCTayQlcGfNZ-1" value="" style="rounded=0;whiteSpace=wrap;html=1;" parent="1" vertex="1">
          <mxGeometry x="200" y="150" width="400" height="240" as="geometry" />
        </mxCell>
        <mxCell id="vatDivCXkCTayQlcGfNZ-2" value="primary shard 01" style="rounded=1;whiteSpace=wrap;html=1;" parent="1" vertex="1">
          <mxGeometry x="260" y="180" width="120" height="60" as="geometry" />
        </mxCell>
        <mxCell id="vatDivCXkCTayQlcGfNZ-3" value="replica shard 01" style="rounded=1;whiteSpace=wrap;html=1;fillColor=#ffe6cc;strokeColor=#d79b00;" parent="1" vertex="1">
          <mxGeometry x="430" y="180" width="120" height="60" as="geometry" />
        </mxCell>
        <mxCell id="vatDivCXkCTayQlcGfNZ-8" style="edgeStyle=orthogonalEdgeStyle;rounded=0;orthogonalLoop=1;jettySize=auto;html=1;exitX=0.5;exitY=1;exitDx=0;exitDy=0;entryX=0.5;entryY=0;entryDx=0;entryDy=0;" parent="1" source="vatDivCXkCTayQlcGfNZ-4" target="vatDivCXkCTayQlcGfNZ-7" edge="1">
          <mxGeometry relative="1" as="geometry" />
        </mxCell>
        <mxCell id="vatDivCXkCTayQlcGfNZ-12" style="edgeStyle=orthogonalEdgeStyle;rounded=0;orthogonalLoop=1;jettySize=auto;html=1;exitX=1;exitY=0.5;exitDx=0;exitDy=0;entryX=0.5;entryY=0;entryDx=0;entryDy=0;" parent="1" source="vatDivCXkCTayQlcGfNZ-4" target="vatDivCXkCTayQlcGfNZ-11" edge="1">
          <mxGeometry relative="1" as="geometry" />
        </mxCell>
        <mxCell id="vatDivCXkCTayQlcGfNZ-4" value="内存buffer" style="rounded=0;whiteSpace=wrap;html=1;" parent="1" vertex="1">
          <mxGeometry x="260" y="310" width="120" height="60" as="geometry" />
        </mxCell>
        <mxCell id="vatDivCXkCTayQlcGfNZ-5" value="" style="shape=flexArrow;endArrow=classic;html=1;rounded=0;" parent="1" source="vatDivCXkCTayQlcGfNZ-2" edge="1">
          <mxGeometry width="50" height="50" relative="1" as="geometry">
            <mxPoint x="319.5" y="250" as="sourcePoint" />
            <mxPoint x="319.5" y="310" as="targetPoint" />
          </mxGeometry>
        </mxCell>
        <mxCell id="vatDivCXkCTayQlcGfNZ-6" value="1 写入内存buffer,同时写入os cache" style="text;html=1;align=center;verticalAlign=middle;whiteSpace=wrap;rounded=0;" parent="1" vertex="1">
          <mxGeometry x="210" y="250" width="100" height="30" as="geometry" />
        </mxCell>
        <mxCell id="vatDivCXkCTayQlcGfNZ-16" style="edgeStyle=orthogonalEdgeStyle;rounded=0;orthogonalLoop=1;jettySize=auto;html=1;exitX=0.5;exitY=1;exitDx=0;exitDy=0;entryX=0.5;entryY=0;entryDx=0;entryDy=0;" parent="1" source="vatDivCXkCTayQlcGfNZ-7" target="vatDivCXkCTayQlcGfNZ-14" edge="1">
          <mxGeometry relative="1" as="geometry" />
        </mxCell>
        <mxCell id="vatDivCXkCTayQlcGfNZ-7" value="os.cache" style="rounded=1;whiteSpace=wrap;html=1;" parent="1" vertex="1">
          <mxGeometry x="260" y="410" width="120" height="60" as="geometry" />
        </mxCell>
        <mxCell id="vatDivCXkCTayQlcGfNZ-10" value="2 每隔1s,会将内存缓冲区中的数据写入到新的段文件中" style="text;html=1;align=center;verticalAlign=middle;whiteSpace=wrap;rounded=0;" parent="1" vertex="1">
          <mxGeometry x="170" y="480" width="100" height="60" as="geometry" />
        </mxCell>
        <mxCell id="vatDivCXkCTayQlcGfNZ-11" value="translog日志文件" style="rounded=0;whiteSpace=wrap;html=1;" parent="1" vertex="1">
          <mxGeometry x="450" y="450" width="120" height="60" as="geometry" />
        </mxCell>
        <mxCell id="vatDivCXkCTayQlcGfNZ-13" value="数据refresh到os cache后就能被搜索到:内存buffer会被清空" style="text;html=1;align=center;verticalAlign=middle;whiteSpace=wrap;rounded=0;" parent="1" vertex="1">
          <mxGeometry x="90" y="370" width="120" height="55" as="geometry" />
        </mxCell>
        <mxCell id="vatDivCXkCTayQlcGfNZ-14" value="segment file&lt;div&gt;磁盘文件&lt;/div&gt;" style="rounded=0;whiteSpace=wrap;html=1;fillColor=#f8cecc;strokeColor=#b85450;" parent="1" vertex="1">
          <mxGeometry x="260" y="555" width="120" height="60" as="geometry" />
        </mxCell>
        <mxCell id="vatDivCXkCTayQlcGfNZ-15" value="1 写入内存buffer,同时写入translog" style="text;html=1;align=center;verticalAlign=middle;whiteSpace=wrap;rounded=0;" parent="1" vertex="1">
          <mxGeometry x="520" y="410" width="100" height="30" as="geometry" />
        </mxCell>
        <mxCell id="vatDivCXkCTayQlcGfNZ-17" value="translog达到一定阈值，触发commit(flush),默认每隔30分钟flush&lt;div&gt;1 将buffer数据刷到os cache&lt;/div&gt;&lt;div&gt;2 将os cache fsync强刷到segment file&lt;/div&gt;&lt;div&gt;3&amp;nbsp; 写commit point&lt;/div&gt;&lt;div&gt;4 清空translog&lt;/div&gt;" style="text;html=1;align=center;verticalAlign=middle;whiteSpace=wrap;rounded=0;" parent="1" vertex="1">
          <mxGeometry x="580" y="470" width="230" height="120" as="geometry" />
        </mxCell>
      </root>
    </mxGraphModel>
  </diagram>
  <diagram name="第 1 页" id="7fFAcqcZDChsLihZWtez">
    <mxGraphModel dx="2062" dy="665" grid="1" gridSize="10" guides="1" tooltips="1" connect="1" arrows="1" fold="1" page="1" pageScale="1" pageWidth="827" pageHeight="1169" math="0" shadow="0">
      <root>
        <mxCell id="0" />
        <mxCell id="1" parent="0" />
        <mxCell id="65RFd_CQUQBTwwXtAhqZ-1" value="新增策略来源： 系统内置、手动新增&lt;div&gt;支持表头检索：策略来源、策略名称、HOST&lt;/div&gt;" style="rounded=1;whiteSpace=wrap;html=1;" parent="1" vertex="1">
          <mxGeometry x="280" y="120" width="320" height="60" as="geometry" />
        </mxCell>
        <mxCell id="65RFd_CQUQBTwwXtAhqZ-10" style="edgeStyle=orthogonalEdgeStyle;rounded=0;orthogonalLoop=1;jettySize=auto;html=1;exitX=0.5;exitY=1;exitDx=0;exitDy=0;exitPerimeter=0;entryX=0.5;entryY=0;entryDx=0;entryDy=0;" parent="1" source="65RFd_CQUQBTwwXtAhqZ-4" target="65RFd_CQUQBTwwXtAhqZ-5" edge="1">
          <mxGeometry relative="1" as="geometry" />
        </mxCell>
        <mxCell id="65RFd_CQUQBTwwXtAhqZ-4" value="开始" style="strokeWidth=2;html=1;shape=mxgraph.flowchart.terminator;whiteSpace=wrap;" parent="1" vertex="1">
          <mxGeometry x="380" y="310" width="100" height="60" as="geometry" />
        </mxCell>
        <mxCell id="65RFd_CQUQBTwwXtAhqZ-11" style="edgeStyle=orthogonalEdgeStyle;rounded=0;orthogonalLoop=1;jettySize=auto;html=1;exitX=0.5;exitY=1;exitDx=0;exitDy=0;entryX=0.5;entryY=0;entryDx=0;entryDy=0;" parent="1" source="65RFd_CQUQBTwwXtAhqZ-5" target="65RFd_CQUQBTwwXtAhqZ-6" edge="1">
          <mxGeometry relative="1" as="geometry" />
        </mxCell>
        <mxCell id="65RFd_CQUQBTwwXtAhqZ-5" value="遍历用户自定义标签表" style="rounded=0;whiteSpace=wrap;html=1;" parent="1" vertex="1">
          <mxGeometry x="365" y="430" width="130" height="60" as="geometry" />
        </mxCell>
        <mxCell id="65RFd_CQUQBTwwXtAhqZ-12" style="edgeStyle=orthogonalEdgeStyle;rounded=0;orthogonalLoop=1;jettySize=auto;html=1;exitX=0.5;exitY=1;exitDx=0;exitDy=0;entryX=0.5;entryY=0;entryDx=0;entryDy=0;" parent="1" source="65RFd_CQUQBTwwXtAhqZ-6" target="65RFd_CQUQBTwwXtAhqZ-7" edge="1">
          <mxGeometry relative="1" as="geometry" />
        </mxCell>
        <mxCell id="65RFd_CQUQBTwwXtAhqZ-6" value="根据label_id将标签分为三大类：组合标签、行为标签、组件标签" style="rounded=0;whiteSpace=wrap;html=1;" parent="1" vertex="1">
          <mxGeometry x="362.5" y="540" width="135" height="60" as="geometry" />
        </mxCell>
        <mxCell id="65RFd_CQUQBTwwXtAhqZ-7" value="将原来的一条规则根据标签类别扩展成1条、2条或3条" style="rounded=0;whiteSpace=wrap;html=1;" parent="1" vertex="1">
          <mxGeometry x="362.5" y="670" width="135" height="60" as="geometry" />
        </mxCell>
        <mxCell id="65RFd_CQUQBTwwXtAhqZ-8" value="结束" style="strokeWidth=2;html=1;shape=mxgraph.flowchart.terminator;whiteSpace=wrap;" parent="1" vertex="1">
          <mxGeometry x="380" y="790" width="100" height="60" as="geometry" />
        </mxCell>
        <mxCell id="65RFd_CQUQBTwwXtAhqZ-13" style="edgeStyle=orthogonalEdgeStyle;rounded=0;orthogonalLoop=1;jettySize=auto;html=1;exitX=0.5;exitY=1;exitDx=0;exitDy=0;entryX=0.5;entryY=0;entryDx=0;entryDy=0;entryPerimeter=0;" parent="1" source="65RFd_CQUQBTwwXtAhqZ-7" target="65RFd_CQUQBTwwXtAhqZ-8" edge="1">
          <mxGeometry relative="1" as="geometry" />
        </mxCell>
        <mxCell id="65RFd_CQUQBTwwXtAhqZ-14" value="API内置标签规则" style="rounded=1;whiteSpace=wrap;html=1;" parent="1" vertex="1">
          <mxGeometry x="50" y="1000" width="120" height="60" as="geometry" />
        </mxCell>
        <mxCell id="65RFd_CQUQBTwwXtAhqZ-15" value="PG数据表" style="rounded=1;whiteSpace=wrap;html=1;" parent="1" vertex="1">
          <mxGeometry x="320" y="1000" width="120" height="60" as="geometry" />
        </mxCell>
        <mxCell id="65RFd_CQUQBTwwXtAhqZ-16" value="" style="shape=flexArrow;endArrow=classic;html=1;rounded=0;entryX=0;entryY=0.5;entryDx=0;entryDy=0;" parent="1" target="65RFd_CQUQBTwwXtAhqZ-15" edge="1">
          <mxGeometry width="50" height="50" relative="1" as="geometry">
            <mxPoint x="170" y="1029.5" as="sourcePoint" />
            <mxPoint x="280" y="1029.5" as="targetPoint" />
          </mxGeometry>
        </mxCell>
        <mxCell id="65RFd_CQUQBTwwXtAhqZ-17" value="同步" style="text;html=1;align=center;verticalAlign=middle;whiteSpace=wrap;rounded=0;" parent="1" vertex="1">
          <mxGeometry x="210" y="1000" width="60" height="30" as="geometry" />
        </mxCell>
        <mxCell id="eFwqTBrAQKIyU6npiiYI-1" value="Actor" style="shape=umlActor;verticalLabelPosition=bottom;verticalAlign=top;html=1;outlineConnect=0;" parent="1" vertex="1">
          <mxGeometry x="90" y="1290" width="30" height="60" as="geometry" />
        </mxCell>
        <mxCell id="eFwqTBrAQKIyU6npiiYI-2" value="" style="endArrow=none;html=1;rounded=0;strokeWidth=6;fillColor=#dae8fc;strokeColor=#6c8ebf;" parent="1" edge="1">
          <mxGeometry width="50" height="50" relative="1" as="geometry">
            <mxPoint x="105" y="1810" as="sourcePoint" />
            <mxPoint x="104.5" y="1400" as="targetPoint" />
          </mxGeometry>
        </mxCell>
        <mxCell id="eFwqTBrAQKIyU6npiiYI-4" value="" style="endArrow=none;html=1;rounded=0;strokeWidth=6;fillColor=#dae8fc;strokeColor=#6c8ebf;" parent="1" edge="1">
          <mxGeometry width="50" height="50" relative="1" as="geometry">
            <mxPoint x="330" y="1810" as="sourcePoint" />
            <mxPoint x="330" y="1404" as="targetPoint" />
          </mxGeometry>
        </mxCell>
        <mxCell id="eFwqTBrAQKIyU6npiiYI-5" value="" style="endArrow=none;html=1;rounded=0;strokeWidth=6;fillColor=#dae8fc;strokeColor=#6c8ebf;" parent="1" edge="1">
          <mxGeometry width="50" height="50" relative="1" as="geometry">
            <mxPoint x="510" y="1810" as="sourcePoint" />
            <mxPoint x="510" y="1400" as="targetPoint" />
          </mxGeometry>
        </mxCell>
        <mxCell id="eFwqTBrAQKIyU6npiiYI-8" value="" style="shape=datastore;whiteSpace=wrap;html=1;" parent="1" vertex="1">
          <mxGeometry x="480" y="1300" width="60" height="60" as="geometry" />
        </mxCell>
        <mxCell id="eFwqTBrAQKIyU6npiiYI-10" value="" style="group" parent="1" vertex="1" connectable="0">
          <mxGeometry x="270" y="1300" width="100" height="60" as="geometry" />
        </mxCell>
        <mxCell id="eFwqTBrAQKIyU6npiiYI-7" value="" style="verticalLabelPosition=bottom;verticalAlign=top;html=1;shape=mxgraph.basic.frame;dx=10;whiteSpace=wrap;" parent="eFwqTBrAQKIyU6npiiYI-10" vertex="1">
          <mxGeometry width="100" height="60" as="geometry" />
        </mxCell>
        <mxCell id="eFwqTBrAQKIyU6npiiYI-9" value="后端" style="text;html=1;align=center;verticalAlign=middle;whiteSpace=wrap;rounded=0;" parent="eFwqTBrAQKIyU6npiiYI-10" vertex="1">
          <mxGeometry x="20" y="15" width="60" height="30" as="geometry" />
        </mxCell>
        <mxCell id="eFwqTBrAQKIyU6npiiYI-11" value="" style="endArrow=classic;html=1;rounded=0;strokeWidth=3;fillColor=#f8cecc;strokeColor=#b85450;" parent="1" edge="1">
          <mxGeometry width="50" height="50" relative="1" as="geometry">
            <mxPoint x="120" y="1440" as="sourcePoint" />
            <mxPoint x="310" y="1440" as="targetPoint" />
          </mxGeometry>
        </mxCell>
        <mxCell id="eFwqTBrAQKIyU6npiiYI-12" value="开启、关闭API安全指令" style="text;html=1;align=center;verticalAlign=middle;whiteSpace=wrap;rounded=0;" parent="1" vertex="1">
          <mxGeometry x="180" y="1410" width="80" height="30" as="geometry" />
        </mxCell>
        <mxCell id="eFwqTBrAQKIyU6npiiYI-13" value="1" style="ellipse;whiteSpace=wrap;html=1;aspect=fixed;fillColor=#dae8fc;strokeColor=#6c8ebf;" parent="1" vertex="1">
          <mxGeometry x="-40" y="1150" width="30" height="30" as="geometry" />
        </mxCell>
        <mxCell id="eFwqTBrAQKIyU6npiiYI-14" value="" style="endArrow=none;html=1;rounded=0;strokeWidth=6;fillColor=#dae8fc;strokeColor=#6c8ebf;" parent="1" edge="1">
          <mxGeometry width="50" height="50" relative="1" as="geometry">
            <mxPoint x="680" y="1810" as="sourcePoint" />
            <mxPoint x="680" y="1400" as="targetPoint" />
          </mxGeometry>
        </mxCell>
        <mxCell id="eFwqTBrAQKIyU6npiiYI-16" value="" style="group" parent="1" vertex="1" connectable="0">
          <mxGeometry x="630" y="1300" width="100" height="60" as="geometry" />
        </mxCell>
        <mxCell id="eFwqTBrAQKIyU6npiiYI-17" value="" style="verticalLabelPosition=bottom;verticalAlign=top;html=1;shape=mxgraph.basic.frame;dx=10;whiteSpace=wrap;" parent="eFwqTBrAQKIyU6npiiYI-16" vertex="1">
          <mxGeometry width="100" height="60" as="geometry" />
        </mxCell>
        <mxCell id="eFwqTBrAQKIyU6npiiYI-18" value="TA配置" style="text;html=1;align=center;verticalAlign=middle;whiteSpace=wrap;rounded=0;" parent="eFwqTBrAQKIyU6npiiYI-16" vertex="1">
          <mxGeometry x="20" y="15" width="60" height="30" as="geometry" />
        </mxCell>
        <mxCell id="eFwqTBrAQKIyU6npiiYI-22" value="" style="group" parent="1" vertex="1" connectable="0">
          <mxGeometry x="800" y="1300" width="100" height="60" as="geometry" />
        </mxCell>
        <mxCell id="eFwqTBrAQKIyU6npiiYI-23" value="" style="verticalLabelPosition=bottom;verticalAlign=top;html=1;shape=mxgraph.basic.frame;dx=10;whiteSpace=wrap;" parent="eFwqTBrAQKIyU6npiiYI-22" vertex="1">
          <mxGeometry width="100" height="60" as="geometry" />
        </mxCell>
        <mxCell id="eFwqTBrAQKIyU6npiiYI-24" value="后台进程" style="text;html=1;align=center;verticalAlign=middle;whiteSpace=wrap;rounded=0;" parent="eFwqTBrAQKIyU6npiiYI-22" vertex="1">
          <mxGeometry x="20" y="15" width="60" height="30" as="geometry" />
        </mxCell>
        <mxCell id="eFwqTBrAQKIyU6npiiYI-25" value="" style="endArrow=none;html=1;rounded=0;strokeWidth=6;fillColor=#dae8fc;strokeColor=#6c8ebf;" parent="1" edge="1">
          <mxGeometry width="50" height="50" relative="1" as="geometry">
            <mxPoint x="850" y="1800" as="sourcePoint" />
            <mxPoint x="849.5" y="1400" as="targetPoint" />
          </mxGeometry>
        </mxCell>
        <mxCell id="eFwqTBrAQKIyU6npiiYI-26" value="" style="endArrow=classic;html=1;rounded=0;strokeWidth=3;fillColor=#e1d5e7;strokeColor=#9673a6;" parent="1" edge="1">
          <mxGeometry width="50" height="50" relative="1" as="geometry">
            <mxPoint x="305" y="1480" as="sourcePoint" />
            <mxPoint x="120" y="1480" as="targetPoint" />
          </mxGeometry>
        </mxCell>
        <mxCell id="eFwqTBrAQKIyU6npiiYI-27" value="2" style="ellipse;whiteSpace=wrap;html=1;aspect=fixed;fillColor=#dae8fc;strokeColor=#6c8ebf;" parent="1" vertex="1">
          <mxGeometry x="150" y="1450" width="30" height="30" as="geometry" />
        </mxCell>
        <mxCell id="eFwqTBrAQKIyU6npiiYI-28" value="1" style="ellipse;whiteSpace=wrap;html=1;aspect=fixed;fillColor=#f8cecc;strokeColor=#b85450;" parent="1" vertex="1">
          <mxGeometry x="150" y="1410" width="30" height="30" as="geometry" />
        </mxCell>
        <mxCell id="eFwqTBrAQKIyU6npiiYI-29" value="校验参数以及客户是否有证书权限" style="text;html=1;align=center;verticalAlign=middle;whiteSpace=wrap;rounded=0;" parent="1" vertex="1">
          <mxGeometry x="190" y="1450" width="100" height="30" as="geometry" />
        </mxCell>
        <mxCell id="eFwqTBrAQKIyU6npiiYI-30" value="" style="endArrow=classic;html=1;rounded=0;strokeWidth=3;fillColor=#f8cecc;strokeColor=#b85450;" parent="1" edge="1">
          <mxGeometry width="50" height="50" relative="1" as="geometry">
            <mxPoint x="340" y="1510" as="sourcePoint" />
            <mxPoint x="510" y="1510" as="targetPoint" />
          </mxGeometry>
        </mxCell>
        <mxCell id="eFwqTBrAQKIyU6npiiYI-31" value="3" style="ellipse;whiteSpace=wrap;html=1;aspect=fixed;fillColor=#f8cecc;strokeColor=#b85450;" parent="1" vertex="1">
          <mxGeometry x="350" y="1480" width="30" height="30" as="geometry" />
        </mxCell>
        <mxCell id="eFwqTBrAQKIyU6npiiYI-32" value="更新缓存数据库（服务开启状态）" style="text;html=1;align=center;verticalAlign=middle;whiteSpace=wrap;rounded=0;" parent="1" vertex="1">
          <mxGeometry x="390" y="1470" width="90" height="30" as="geometry" />
        </mxCell>
        <mxCell id="eFwqTBrAQKIyU6npiiYI-33" value="" style="endArrow=classic;html=1;rounded=0;strokeWidth=3;fillColor=#f8cecc;strokeColor=#b85450;" parent="1" edge="1">
          <mxGeometry width="50" height="50" relative="1" as="geometry">
            <mxPoint x="320" y="1690" as="sourcePoint" />
            <mxPoint x="840" y="1690" as="targetPoint" />
          </mxGeometry>
        </mxCell>
        <mxCell id="eFwqTBrAQKIyU6npiiYI-34" value="6" style="ellipse;whiteSpace=wrap;html=1;aspect=fixed;fillColor=#f8cecc;strokeColor=#b85450;" parent="1" vertex="1">
          <mxGeometry x="350" y="1650" width="30" height="30" as="geometry" />
        </mxCell>
        <mxCell id="eFwqTBrAQKIyU6npiiYI-37" value="开启、关闭后台API进程和定时任务" style="text;html=1;align=center;verticalAlign=middle;whiteSpace=wrap;rounded=0;" parent="1" vertex="1">
          <mxGeometry x="390" y="1650" width="120" height="30" as="geometry" />
        </mxCell>
        <mxCell id="eFwqTBrAQKIyU6npiiYI-38" value="" style="endArrow=classic;html=1;rounded=0;strokeWidth=3;fillColor=#f8cecc;strokeColor=#b85450;" parent="1" edge="1">
          <mxGeometry width="50" height="50" relative="1" as="geometry">
            <mxPoint x="330" y="1740" as="sourcePoint" />
            <mxPoint x="990" y="1740" as="targetPoint" />
          </mxGeometry>
        </mxCell>
        <mxCell id="eFwqTBrAQKIyU6npiiYI-39" value="7" style="ellipse;whiteSpace=wrap;html=1;aspect=fixed;fillColor=#f8cecc;strokeColor=#b85450;" parent="1" vertex="1">
          <mxGeometry x="350" y="1700" width="30" height="30" as="geometry" />
        </mxCell>
        <mxCell id="eFwqTBrAQKIyU6npiiYI-41" value="启用和停用传感器" style="text;html=1;align=center;verticalAlign=middle;whiteSpace=wrap;rounded=0;" parent="1" vertex="1">
          <mxGeometry x="390" y="1700" width="120" height="30" as="geometry" />
        </mxCell>
        <mxCell id="eFwqTBrAQKIyU6npiiYI-43" value="" style="endArrow=classic;html=1;rounded=0;strokeWidth=3;fillColor=#f8cecc;strokeColor=#b85450;" parent="1" edge="1">
          <mxGeometry width="50" height="50" relative="1" as="geometry">
            <mxPoint x="330" y="1640" as="sourcePoint" />
            <mxPoint x="680" y="1640" as="targetPoint" />
          </mxGeometry>
        </mxCell>
        <mxCell id="eFwqTBrAQKIyU6npiiYI-44" value="" style="group" parent="1" vertex="1" connectable="0">
          <mxGeometry x="950" y="1300" width="100" height="60" as="geometry" />
        </mxCell>
        <mxCell id="eFwqTBrAQKIyU6npiiYI-45" value="" style="verticalLabelPosition=bottom;verticalAlign=top;html=1;shape=mxgraph.basic.frame;dx=10;whiteSpace=wrap;" parent="eFwqTBrAQKIyU6npiiYI-44" vertex="1">
          <mxGeometry width="100" height="60" as="geometry" />
        </mxCell>
        <mxCell id="eFwqTBrAQKIyU6npiiYI-46" value="传感器" style="text;html=1;align=center;verticalAlign=middle;whiteSpace=wrap;rounded=0;" parent="eFwqTBrAQKIyU6npiiYI-44" vertex="1">
          <mxGeometry x="20" y="15" width="60" height="30" as="geometry" />
        </mxCell>
        <mxCell id="eFwqTBrAQKIyU6npiiYI-47" value="" style="endArrow=none;html=1;rounded=0;strokeWidth=6;fillColor=#dae8fc;strokeColor=#6c8ebf;" parent="1" edge="1">
          <mxGeometry width="50" height="50" relative="1" as="geometry">
            <mxPoint x="1000" y="1800" as="sourcePoint" />
            <mxPoint x="999.5" y="1410" as="targetPoint" />
          </mxGeometry>
        </mxCell>
        <mxCell id="eFwqTBrAQKIyU6npiiYI-48" value="5" style="ellipse;whiteSpace=wrap;html=1;aspect=fixed;fillColor=#f8cecc;strokeColor=#b85450;" parent="1" vertex="1">
          <mxGeometry x="350" y="1600" width="30" height="30" as="geometry" />
        </mxCell>
        <mxCell id="eFwqTBrAQKIyU6npiiYI-49" value="修改TA配置" style="text;html=1;align=center;verticalAlign=middle;whiteSpace=wrap;rounded=0;" parent="1" vertex="1">
          <mxGeometry x="390" y="1600" width="120" height="30" as="geometry" />
        </mxCell>
        <mxCell id="eFwqTBrAQKIyU6npiiYI-50" value="" style="endArrow=classic;html=1;rounded=0;strokeWidth=3;fillColor=#e1d5e7;strokeColor=#9673a6;" parent="1" edge="1">
          <mxGeometry width="50" height="50" relative="1" as="geometry">
            <mxPoint x="315" y="1550" as="sourcePoint" />
            <mxPoint x="125" y="1550" as="targetPoint" />
          </mxGeometry>
        </mxCell>
        <mxCell id="eFwqTBrAQKIyU6npiiYI-51" value="4" style="ellipse;whiteSpace=wrap;html=1;aspect=fixed;fillColor=#dae8fc;strokeColor=#6c8ebf;" parent="1" vertex="1">
          <mxGeometry x="150" y="1510" width="30" height="30" as="geometry" />
        </mxCell>
        <mxCell id="eFwqTBrAQKIyU6npiiYI-52" value="返回结果" style="text;html=1;align=center;verticalAlign=middle;whiteSpace=wrap;rounded=0;" parent="1" vertex="1">
          <mxGeometry x="190" y="1520" width="80" height="30" as="geometry" />
        </mxCell>
        <mxCell id="eFwqTBrAQKIyU6npiiYI-55" value="异步任务进程" style="text;html=1;align=center;verticalAlign=middle;whiteSpace=wrap;rounded=0;" parent="1" vertex="1">
          <mxGeometry x="335" y="1570" width="75" height="30" as="geometry" />
        </mxCell>
        <mxCell id="eFwqTBrAQKIyU6npiiYI-56" value="" style="endArrow=classic;html=1;rounded=0;strokeWidth=3;fillColor=#e1d5e7;strokeColor=#9673a6;" parent="1" edge="1">
          <mxGeometry width="50" height="50" relative="1" as="geometry">
            <mxPoint x="990" y="1790" as="sourcePoint" />
            <mxPoint x="510" y="1790" as="targetPoint" />
          </mxGeometry>
        </mxCell>
        <mxCell id="eFwqTBrAQKIyU6npiiYI-57" value="8" style="ellipse;whiteSpace=wrap;html=1;aspect=fixed;fillColor=#dae8fc;strokeColor=#6c8ebf;" parent="1" vertex="1">
          <mxGeometry x="710" y="1754" width="30" height="30" as="geometry" />
        </mxCell>
        <mxCell id="eFwqTBrAQKIyU6npiiYI-58" value="将传感器的状态写入redis缓存" style="text;html=1;align=center;verticalAlign=middle;whiteSpace=wrap;rounded=0;" parent="1" vertex="1">
          <mxGeometry x="747" y="1750" width="123" height="30" as="geometry" />
        </mxCell>
        <mxCell id="eFwqTBrAQKIyU6npiiYI-59" value="" style="endArrow=none;html=1;rounded=0;strokeWidth=6;fillColor=#dae8fc;strokeColor=#6c8ebf;" parent="1" edge="1">
          <mxGeometry width="50" height="50" relative="1" as="geometry">
            <mxPoint x="115" y="3150" as="sourcePoint" />
            <mxPoint x="114.5" y="2740" as="targetPoint" />
          </mxGeometry>
        </mxCell>
        <mxCell id="eFwqTBrAQKIyU6npiiYI-60" value="Actor" style="shape=umlActor;verticalLabelPosition=bottom;verticalAlign=top;html=1;outlineConnect=0;" parent="1" vertex="1">
          <mxGeometry x="100" y="2650" width="30" height="60" as="geometry" />
        </mxCell>
        <mxCell id="eFwqTBrAQKIyU6npiiYI-63" value="" style="endArrow=none;html=1;rounded=0;strokeWidth=6;fillColor=#dae8fc;strokeColor=#6c8ebf;" parent="1" edge="1">
          <mxGeometry width="50" height="50" relative="1" as="geometry">
            <mxPoint x="340.5" y="3150" as="sourcePoint" />
            <mxPoint x="340" y="2740" as="targetPoint" />
          </mxGeometry>
        </mxCell>
        <mxCell id="eFwqTBrAQKIyU6npiiYI-64" value="" style="group" parent="1" vertex="1" connectable="0">
          <mxGeometry x="290" y="2650" width="100" height="60" as="geometry" />
        </mxCell>
        <mxCell id="eFwqTBrAQKIyU6npiiYI-65" value="" style="verticalLabelPosition=bottom;verticalAlign=top;html=1;shape=mxgraph.basic.frame;dx=10;whiteSpace=wrap;" parent="eFwqTBrAQKIyU6npiiYI-64" vertex="1">
          <mxGeometry width="100" height="60" as="geometry" />
        </mxCell>
        <mxCell id="eFwqTBrAQKIyU6npiiYI-66" value="后端" style="text;html=1;align=center;verticalAlign=middle;whiteSpace=wrap;rounded=0;" parent="eFwqTBrAQKIyU6npiiYI-64" vertex="1">
          <mxGeometry x="20" y="15" width="60" height="30" as="geometry" />
        </mxCell>
        <mxCell id="eFwqTBrAQKIyU6npiiYI-68" value="" style="endArrow=none;html=1;rounded=0;strokeWidth=6;fillColor=#dae8fc;strokeColor=#6c8ebf;" parent="1" edge="1">
          <mxGeometry width="50" height="50" relative="1" as="geometry">
            <mxPoint x="740.5" y="3150" as="sourcePoint" />
            <mxPoint x="740" y="2740" as="targetPoint" />
          </mxGeometry>
        </mxCell>
        <mxCell id="eFwqTBrAQKIyU6npiiYI-75" value="" style="verticalLabelPosition=bottom;verticalAlign=top;html=1;shape=mxgraph.basic.frame;dx=10;whiteSpace=wrap;" parent="1" vertex="1">
          <mxGeometry x="690" y="2650" width="100" height="60" as="geometry" />
        </mxCell>
        <mxCell id="eFwqTBrAQKIyU6npiiYI-76" value="传感器" style="text;html=1;align=center;verticalAlign=middle;resizable=0;points=[];autosize=1;strokeColor=none;fillColor=none;" parent="1" vertex="1">
          <mxGeometry x="710" y="2668" width="60" height="30" as="geometry" />
        </mxCell>
        <mxCell id="eFwqTBrAQKIyU6npiiYI-77" value="" style="endArrow=none;html=1;rounded=0;strokeWidth=6;fillColor=#dae8fc;strokeColor=#6c8ebf;" parent="1" edge="1">
          <mxGeometry width="50" height="50" relative="1" as="geometry">
            <mxPoint x="550" y="3150" as="sourcePoint" />
            <mxPoint x="549.5" y="2740" as="targetPoint" />
          </mxGeometry>
        </mxCell>
        <mxCell id="eFwqTBrAQKIyU6npiiYI-78" value="" style="shape=datastore;whiteSpace=wrap;html=1;" parent="1" vertex="1">
          <mxGeometry x="520" y="2650" width="60" height="60" as="geometry" />
        </mxCell>
        <mxCell id="eFwqTBrAQKIyU6npiiYI-79" value="" style="endArrow=classic;html=1;rounded=0;strokeWidth=4;fillColor=#f8cecc;strokeColor=#b85450;" parent="1" edge="1">
          <mxGeometry width="50" height="50" relative="1" as="geometry">
            <mxPoint x="130" y="2780" as="sourcePoint" />
            <mxPoint x="330" y="2780" as="targetPoint" />
          </mxGeometry>
        </mxCell>
        <mxCell id="eFwqTBrAQKIyU6npiiYI-80" value="1" style="ellipse;whiteSpace=wrap;html=1;aspect=fixed;fillColor=#f8cecc;strokeColor=#b85450;" parent="1" vertex="1">
          <mxGeometry x="150" y="2740" width="30" height="30" as="geometry" />
        </mxCell>
        <mxCell id="eFwqTBrAQKIyU6npiiYI-81" value="启用、停用传感器" style="text;html=1;align=center;verticalAlign=middle;whiteSpace=wrap;rounded=0;" parent="1" vertex="1">
          <mxGeometry x="190" y="2740" width="60" height="30" as="geometry" />
        </mxCell>
        <mxCell id="eFwqTBrAQKIyU6npiiYI-83" value="" style="endArrow=classic;html=1;rounded=0;strokeWidth=4;fillColor=#f8cecc;strokeColor=#b85450;" parent="1" edge="1">
          <mxGeometry width="50" height="50" relative="1" as="geometry">
            <mxPoint x="340" y="2840" as="sourcePoint" />
            <mxPoint x="730" y="2840" as="targetPoint" />
          </mxGeometry>
        </mxCell>
        <mxCell id="eFwqTBrAQKIyU6npiiYI-84" value="2" style="ellipse;whiteSpace=wrap;html=1;aspect=fixed;fillColor=#f8cecc;strokeColor=#b85450;" parent="1" vertex="1">
          <mxGeometry x="370" y="2800" width="30" height="30" as="geometry" />
        </mxCell>
        <mxCell id="eFwqTBrAQKIyU6npiiYI-85" value="多线程并发请求、关闭传感器" style="text;html=1;align=center;verticalAlign=middle;whiteSpace=wrap;rounded=0;" parent="1" vertex="1">
          <mxGeometry x="420" y="2800" width="100" height="30" as="geometry" />
        </mxCell>
        <mxCell id="eFwqTBrAQKIyU6npiiYI-86" value="" style="endArrow=classic;html=1;rounded=0;strokeWidth=4;fillColor=#dae8fc;strokeColor=#6c8ebf;" parent="1" edge="1">
          <mxGeometry width="50" height="50" relative="1" as="geometry">
            <mxPoint x="740" y="2922" as="sourcePoint" />
            <mxPoint x="340" y="2922" as="targetPoint" />
          </mxGeometry>
        </mxCell>
        <mxCell id="eFwqTBrAQKIyU6npiiYI-87" value="3" style="ellipse;whiteSpace=wrap;html=1;aspect=fixed;fillColor=#dae8fc;strokeColor=#6c8ebf;" parent="1" vertex="1">
          <mxGeometry x="580" y="2880" width="30" height="30" as="geometry" />
        </mxCell>
        <mxCell id="eFwqTBrAQKIyU6npiiYI-88" value="将结果返回后端" style="text;html=1;align=center;verticalAlign=middle;whiteSpace=wrap;rounded=0;" parent="1" vertex="1">
          <mxGeometry x="620" y="2880" width="100" height="30" as="geometry" />
        </mxCell>
        <mxCell id="eFwqTBrAQKIyU6npiiYI-89" value="5" style="ellipse;whiteSpace=wrap;html=1;aspect=fixed;fillColor=#dae8fc;strokeColor=#6c8ebf;" parent="1" vertex="1">
          <mxGeometry x="170" y="3020" width="30" height="30" as="geometry" />
        </mxCell>
        <mxCell id="eFwqTBrAQKIyU6npiiYI-90" value="" style="endArrow=classic;html=1;rounded=0;strokeWidth=4;fillColor=#f8cecc;strokeColor=#b85450;" parent="1" edge="1">
          <mxGeometry width="50" height="50" relative="1" as="geometry">
            <mxPoint x="350" y="2990" as="sourcePoint" />
            <mxPoint x="550" y="2990" as="targetPoint" />
          </mxGeometry>
        </mxCell>
        <mxCell id="eFwqTBrAQKIyU6npiiYI-91" value="4" style="ellipse;whiteSpace=wrap;html=1;aspect=fixed;fillColor=#f8cecc;strokeColor=#b85450;" parent="1" vertex="1">
          <mxGeometry x="370" y="2950" width="30" height="30" as="geometry" />
        </mxCell>
        <mxCell id="eFwqTBrAQKIyU6npiiYI-92" value="更新数据库" style="text;html=1;align=center;verticalAlign=middle;whiteSpace=wrap;rounded=0;" parent="1" vertex="1">
          <mxGeometry x="420" y="2950" width="100" height="30" as="geometry" />
        </mxCell>
        <mxCell id="eFwqTBrAQKIyU6npiiYI-93" value="" style="endArrow=classic;html=1;rounded=0;strokeWidth=4;fillColor=#dae8fc;strokeColor=#6c8ebf;" parent="1" edge="1">
          <mxGeometry width="50" height="50" relative="1" as="geometry">
            <mxPoint x="340" y="3060" as="sourcePoint" />
            <mxPoint x="130" y="3060" as="targetPoint" />
          </mxGeometry>
        </mxCell>
        <mxCell id="eFwqTBrAQKIyU6npiiYI-94" value="返回结果" style="text;html=1;align=center;verticalAlign=middle;whiteSpace=wrap;rounded=0;" parent="1" vertex="1">
          <mxGeometry x="210" y="3020" width="100" height="30" as="geometry" />
        </mxCell>
      </root>
    </mxGraphModel>
  </diagram>
  <diagram name="第 2 页" id="312ETkllk-V_Xr6akxZ1">
    <mxGraphModel dx="1050" dy="-1773" grid="1" gridSize="10" guides="1" tooltips="1" connect="1" arrows="1" fold="1" page="1" pageScale="1" pageWidth="827" pageHeight="1169" math="0" shadow="0">
      <root>
        <mxCell id="0" />
        <mxCell id="1" parent="0" />
        <mxCell id="aOtWU9bdCBbBQNmH6Bfo-1" value="" style="endArrow=none;html=1;rounded=0;strokeWidth=6;fillColor=#dae8fc;strokeColor=#6c8ebf;" edge="1" parent="1">
          <mxGeometry width="50" height="50" relative="1" as="geometry">
            <mxPoint x="115" y="3030" as="sourcePoint" />
            <mxPoint x="114.5" y="2740" as="targetPoint" />
          </mxGeometry>
        </mxCell>
        <mxCell id="aOtWU9bdCBbBQNmH6Bfo-2" value="Actor" style="shape=umlActor;verticalLabelPosition=bottom;verticalAlign=top;html=1;outlineConnect=0;" vertex="1" parent="1">
          <mxGeometry x="100" y="2650" width="30" height="60" as="geometry" />
        </mxCell>
        <mxCell id="aOtWU9bdCBbBQNmH6Bfo-3" value="" style="endArrow=none;html=1;rounded=0;strokeWidth=6;fillColor=#dae8fc;strokeColor=#6c8ebf;" edge="1" parent="1">
          <mxGeometry width="50" height="50" relative="1" as="geometry">
            <mxPoint x="340" y="3020" as="sourcePoint" />
            <mxPoint x="340" y="2740" as="targetPoint" />
          </mxGeometry>
        </mxCell>
        <mxCell id="aOtWU9bdCBbBQNmH6Bfo-4" value="" style="group" vertex="1" connectable="0" parent="1">
          <mxGeometry x="290" y="2650" width="100" height="60" as="geometry" />
        </mxCell>
        <mxCell id="aOtWU9bdCBbBQNmH6Bfo-5" value="" style="verticalLabelPosition=bottom;verticalAlign=top;html=1;shape=mxgraph.basic.frame;dx=10;whiteSpace=wrap;" vertex="1" parent="aOtWU9bdCBbBQNmH6Bfo-4">
          <mxGeometry width="100" height="60" as="geometry" />
        </mxCell>
        <mxCell id="aOtWU9bdCBbBQNmH6Bfo-6" value="后端" style="text;html=1;align=center;verticalAlign=middle;whiteSpace=wrap;rounded=0;" vertex="1" parent="aOtWU9bdCBbBQNmH6Bfo-4">
          <mxGeometry x="20" y="15" width="60" height="30" as="geometry" />
        </mxCell>
        <mxCell id="aOtWU9bdCBbBQNmH6Bfo-10" value="" style="endArrow=none;html=1;rounded=0;strokeWidth=6;fillColor=#dae8fc;strokeColor=#6c8ebf;" edge="1" parent="1">
          <mxGeometry width="50" height="50" relative="1" as="geometry">
            <mxPoint x="550" y="3030" as="sourcePoint" />
            <mxPoint x="549.5" y="2740" as="targetPoint" />
          </mxGeometry>
        </mxCell>
        <mxCell id="aOtWU9bdCBbBQNmH6Bfo-11" value="" style="shape=datastore;whiteSpace=wrap;html=1;" vertex="1" parent="1">
          <mxGeometry x="520" y="2650" width="60" height="60" as="geometry" />
        </mxCell>
        <mxCell id="aOtWU9bdCBbBQNmH6Bfo-12" value="" style="endArrow=classic;html=1;rounded=0;strokeWidth=4;fillColor=#f8cecc;strokeColor=#b85450;" edge="1" parent="1">
          <mxGeometry width="50" height="50" relative="1" as="geometry">
            <mxPoint x="130" y="2780" as="sourcePoint" />
            <mxPoint x="330" y="2780" as="targetPoint" />
          </mxGeometry>
        </mxCell>
        <mxCell id="aOtWU9bdCBbBQNmH6Bfo-13" value="1" style="ellipse;whiteSpace=wrap;html=1;aspect=fixed;fillColor=#f8cecc;strokeColor=#b85450;" vertex="1" parent="1">
          <mxGeometry x="150" y="2740" width="30" height="30" as="geometry" />
        </mxCell>
        <mxCell id="aOtWU9bdCBbBQNmH6Bfo-14" value="查询聚合策略" style="text;html=1;align=center;verticalAlign=middle;whiteSpace=wrap;rounded=0;" vertex="1" parent="1">
          <mxGeometry x="190" y="2740" width="60" height="30" as="geometry" />
        </mxCell>
        <mxCell id="aOtWU9bdCBbBQNmH6Bfo-15" value="" style="endArrow=classic;html=1;rounded=0;strokeWidth=4;fillColor=#f8cecc;strokeColor=#b85450;" edge="1" parent="1">
          <mxGeometry width="50" height="50" relative="1" as="geometry">
            <mxPoint x="340" y="2840" as="sourcePoint" />
            <mxPoint x="540" y="2840" as="targetPoint" />
          </mxGeometry>
        </mxCell>
        <mxCell id="aOtWU9bdCBbBQNmH6Bfo-16" value="2" style="ellipse;whiteSpace=wrap;html=1;aspect=fixed;fillColor=#f8cecc;strokeColor=#b85450;" vertex="1" parent="1">
          <mxGeometry x="370" y="2800" width="30" height="30" as="geometry" />
        </mxCell>
        <mxCell id="aOtWU9bdCBbBQNmH6Bfo-17" value="查询后端数据库" style="text;html=1;align=center;verticalAlign=middle;whiteSpace=wrap;rounded=0;" vertex="1" parent="1">
          <mxGeometry x="420" y="2800" width="100" height="30" as="geometry" />
        </mxCell>
        <mxCell id="aOtWU9bdCBbBQNmH6Bfo-18" value="" style="endArrow=classic;html=1;rounded=0;strokeWidth=4;fillColor=#dae8fc;strokeColor=#6c8ebf;" edge="1" parent="1">
          <mxGeometry width="50" height="50" relative="1" as="geometry">
            <mxPoint x="540" y="2922" as="sourcePoint" />
            <mxPoint x="340" y="2922" as="targetPoint" />
          </mxGeometry>
        </mxCell>
        <mxCell id="aOtWU9bdCBbBQNmH6Bfo-19" value="3" style="ellipse;whiteSpace=wrap;html=1;aspect=fixed;fillColor=#dae8fc;strokeColor=#6c8ebf;" vertex="1" parent="1">
          <mxGeometry x="360" y="2880" width="30" height="30" as="geometry" />
        </mxCell>
        <mxCell id="aOtWU9bdCBbBQNmH6Bfo-20" value="将结果返回后端" style="text;html=1;align=center;verticalAlign=middle;whiteSpace=wrap;rounded=0;" vertex="1" parent="1">
          <mxGeometry x="400" y="2880" width="100" height="30" as="geometry" />
        </mxCell>
        <mxCell id="aOtWU9bdCBbBQNmH6Bfo-21" value="4" style="ellipse;whiteSpace=wrap;html=1;aspect=fixed;fillColor=#dae8fc;strokeColor=#6c8ebf;" vertex="1" parent="1">
          <mxGeometry x="170" y="2940" width="30" height="30" as="geometry" />
        </mxCell>
        <mxCell id="aOtWU9bdCBbBQNmH6Bfo-25" value="" style="endArrow=classic;html=1;rounded=0;strokeWidth=4;fillColor=#dae8fc;strokeColor=#6c8ebf;" edge="1" parent="1">
          <mxGeometry width="50" height="50" relative="1" as="geometry">
            <mxPoint x="340" y="2980" as="sourcePoint" />
            <mxPoint x="130" y="2980" as="targetPoint" />
          </mxGeometry>
        </mxCell>
        <mxCell id="aOtWU9bdCBbBQNmH6Bfo-26" value="返回结果" style="text;html=1;align=center;verticalAlign=middle;whiteSpace=wrap;rounded=0;" vertex="1" parent="1">
          <mxGeometry x="220" y="2940" width="100" height="30" as="geometry" />
        </mxCell>
        <mxCell id="aOtWU9bdCBbBQNmH6Bfo-30" value="Actor" style="shape=umlActor;verticalLabelPosition=bottom;verticalAlign=top;html=1;outlineConnect=0;" vertex="1" parent="1">
          <mxGeometry x="110" y="3180" width="30" height="60" as="geometry" />
        </mxCell>
        <mxCell id="aOtWU9bdCBbBQNmH6Bfo-31" value="" style="endArrow=none;html=1;rounded=0;strokeWidth=6;fillColor=#dae8fc;strokeColor=#6c8ebf;" edge="1" parent="1">
          <mxGeometry width="50" height="50" relative="1" as="geometry">
            <mxPoint x="125" y="3590" as="sourcePoint" />
            <mxPoint x="124.5" y="3300" as="targetPoint" />
          </mxGeometry>
        </mxCell>
      </root>
    </mxGraphModel>
  </diagram>
  <diagram name="第 3 页" id="PXIXYXqm8LDY042-4weK">
    <mxGraphModel dx="1050" dy="-1773" grid="1" gridSize="10" guides="1" tooltips="1" connect="1" arrows="1" fold="1" page="1" pageScale="1" pageWidth="827" pageHeight="1169" background="none" math="0" shadow="0">
      <root>
        <mxCell id="0" />
        <mxCell id="1" parent="0" />
        <mxCell id="wXNnlgpoWVMwmMimKvm5-27" value="" style="shape=partialRectangle;whiteSpace=wrap;html=1;left=0;right=0;fillColor=#dae8fc;strokeWidth=4;strokeColor=#6c8ebf;" vertex="1" parent="1">
          <mxGeometry x="354" y="2960" width="120" height="60" as="geometry" />
        </mxCell>
        <mxCell id="wXNnlgpoWVMwmMimKvm5-1" value="" style="endArrow=none;html=1;rounded=0;strokeWidth=6;fillColor=#dae8fc;strokeColor=#6c8ebf;" edge="1" parent="1">
          <mxGeometry width="50" height="50" relative="1" as="geometry">
            <mxPoint x="60" y="3190" as="sourcePoint" />
            <mxPoint x="60" y="2743" as="targetPoint" />
          </mxGeometry>
        </mxCell>
        <mxCell id="wXNnlgpoWVMwmMimKvm5-2" value="Actor" style="shape=umlActor;verticalLabelPosition=bottom;verticalAlign=top;html=1;outlineConnect=0;" vertex="1" parent="1">
          <mxGeometry x="40" y="2650" width="30" height="60" as="geometry" />
        </mxCell>
        <mxCell id="wXNnlgpoWVMwmMimKvm5-3" value="" style="endArrow=none;html=1;rounded=0;strokeWidth=6;fillColor=#dae8fc;strokeColor=#6c8ebf;" edge="1" parent="1">
          <mxGeometry width="50" height="50" relative="1" as="geometry">
            <mxPoint x="340" y="3190" as="sourcePoint" />
            <mxPoint x="340" y="2740" as="targetPoint" />
          </mxGeometry>
        </mxCell>
        <mxCell id="wXNnlgpoWVMwmMimKvm5-4" value="" style="group" vertex="1" connectable="0" parent="1">
          <mxGeometry x="290" y="2650" width="100" height="60" as="geometry" />
        </mxCell>
        <mxCell id="wXNnlgpoWVMwmMimKvm5-5" value="" style="verticalLabelPosition=bottom;verticalAlign=top;html=1;shape=mxgraph.basic.frame;dx=10;whiteSpace=wrap;" vertex="1" parent="wXNnlgpoWVMwmMimKvm5-4">
          <mxGeometry width="100" height="60" as="geometry" />
        </mxCell>
        <mxCell id="wXNnlgpoWVMwmMimKvm5-6" value="后端" style="text;html=1;align=center;verticalAlign=middle;whiteSpace=wrap;rounded=0;" vertex="1" parent="wXNnlgpoWVMwmMimKvm5-4">
          <mxGeometry x="20" y="15" width="60" height="30" as="geometry" />
        </mxCell>
        <mxCell id="wXNnlgpoWVMwmMimKvm5-7" value="" style="endArrow=none;html=1;rounded=0;strokeWidth=6;fillColor=#dae8fc;strokeColor=#6c8ebf;" edge="1" parent="1">
          <mxGeometry width="50" height="50" relative="1" as="geometry">
            <mxPoint x="550" y="3190" as="sourcePoint" />
            <mxPoint x="549.5" y="2740" as="targetPoint" />
          </mxGeometry>
        </mxCell>
        <mxCell id="wXNnlgpoWVMwmMimKvm5-8" value="" style="shape=datastore;whiteSpace=wrap;html=1;" vertex="1" parent="1">
          <mxGeometry x="520" y="2650" width="60" height="60" as="geometry" />
        </mxCell>
        <mxCell id="wXNnlgpoWVMwmMimKvm5-9" value="" style="endArrow=classic;html=1;rounded=0;strokeWidth=4;fillColor=#f8cecc;strokeColor=#b85450;" edge="1" parent="1">
          <mxGeometry width="50" height="50" relative="1" as="geometry">
            <mxPoint x="70" y="2800" as="sourcePoint" />
            <mxPoint x="330" y="2799" as="targetPoint" />
          </mxGeometry>
        </mxCell>
        <mxCell id="wXNnlgpoWVMwmMimKvm5-10" value="1" style="ellipse;whiteSpace=wrap;html=1;aspect=fixed;fillColor=#f8cecc;strokeColor=#b85450;" vertex="1" parent="1">
          <mxGeometry x="80" y="2760" width="30" height="30" as="geometry" />
        </mxCell>
        <mxCell id="wXNnlgpoWVMwmMimKvm5-11" value="触发方式2：用户点击一键下发" style="text;html=1;align=center;verticalAlign=middle;whiteSpace=wrap;rounded=0;" vertex="1" parent="1">
          <mxGeometry x="130" y="2760" width="190" height="30" as="geometry" />
        </mxCell>
        <mxCell id="wXNnlgpoWVMwmMimKvm5-12" value="" style="endArrow=classic;html=1;rounded=0;strokeWidth=4;fillColor=#f8cecc;strokeColor=#b85450;" edge="1" parent="1">
          <mxGeometry width="50" height="50" relative="1" as="geometry">
            <mxPoint x="340" y="2840" as="sourcePoint" />
            <mxPoint x="540" y="2840" as="targetPoint" />
          </mxGeometry>
        </mxCell>
        <mxCell id="wXNnlgpoWVMwmMimKvm5-13" value="2" style="ellipse;whiteSpace=wrap;html=1;aspect=fixed;fillColor=#f8cecc;strokeColor=#b85450;" vertex="1" parent="1">
          <mxGeometry x="360" y="2800" width="30" height="30" as="geometry" />
        </mxCell>
        <mxCell id="wXNnlgpoWVMwmMimKvm5-14" value="查询后端数据库" style="text;html=1;align=center;verticalAlign=middle;whiteSpace=wrap;rounded=0;" vertex="1" parent="1">
          <mxGeometry x="420" y="2800" width="100" height="30" as="geometry" />
        </mxCell>
        <mxCell id="wXNnlgpoWVMwmMimKvm5-15" value="" style="endArrow=classic;html=1;rounded=0;strokeWidth=4;fillColor=#dae8fc;strokeColor=#6c8ebf;" edge="1" parent="1">
          <mxGeometry width="50" height="50" relative="1" as="geometry">
            <mxPoint x="540" y="2922" as="sourcePoint" />
            <mxPoint x="340" y="2922" as="targetPoint" />
          </mxGeometry>
        </mxCell>
        <mxCell id="wXNnlgpoWVMwmMimKvm5-16" value="3" style="ellipse;whiteSpace=wrap;html=1;aspect=fixed;fillColor=#dae8fc;strokeColor=#6c8ebf;" vertex="1" parent="1">
          <mxGeometry x="360" y="2880" width="30" height="30" as="geometry" />
        </mxCell>
        <mxCell id="wXNnlgpoWVMwmMimKvm5-17" value="将结果返回后端" style="text;html=1;align=center;verticalAlign=middle;whiteSpace=wrap;rounded=0;" vertex="1" parent="1">
          <mxGeometry x="400" y="2880" width="100" height="30" as="geometry" />
        </mxCell>
        <mxCell id="wXNnlgpoWVMwmMimKvm5-18" value="4" style="ellipse;whiteSpace=wrap;html=1;aspect=fixed;fillColor=#dae8fc;strokeColor=#6c8ebf;" vertex="1" parent="1">
          <mxGeometry x="474" y="2975" width="30" height="30" as="geometry" />
        </mxCell>
        <mxCell id="wXNnlgpoWVMwmMimKvm5-20" value="将主机资产、API标签、过滤黑白名单等生成xml文件" style="text;html=1;align=center;verticalAlign=middle;whiteSpace=wrap;rounded=0;" vertex="1" parent="1">
          <mxGeometry x="354" y="2975" width="110" height="30" as="geometry" />
        </mxCell>
        <mxCell id="wXNnlgpoWVMwmMimKvm5-29" value="" style="group" vertex="1" connectable="0" parent="1">
          <mxGeometry x="700" y="2650" width="100" height="60" as="geometry" />
        </mxCell>
        <mxCell id="wXNnlgpoWVMwmMimKvm5-30" value="" style="verticalLabelPosition=bottom;verticalAlign=top;html=1;shape=mxgraph.basic.frame;dx=10;whiteSpace=wrap;" vertex="1" parent="wXNnlgpoWVMwmMimKvm5-29">
          <mxGeometry width="100" height="60" as="geometry" />
        </mxCell>
        <mxCell id="wXNnlgpoWVMwmMimKvm5-31" value="主从节点" style="text;html=1;align=center;verticalAlign=middle;whiteSpace=wrap;rounded=0;" vertex="1" parent="wXNnlgpoWVMwmMimKvm5-29">
          <mxGeometry x="20" y="15" width="60" height="30" as="geometry" />
        </mxCell>
        <mxCell id="wXNnlgpoWVMwmMimKvm5-34" value="" style="endArrow=none;html=1;rounded=0;strokeWidth=6;fillColor=#dae8fc;strokeColor=#6c8ebf;" edge="1" parent="1">
          <mxGeometry width="50" height="50" relative="1" as="geometry">
            <mxPoint x="750" y="3190" as="sourcePoint" />
            <mxPoint x="749.5" y="2740" as="targetPoint" />
          </mxGeometry>
        </mxCell>
        <mxCell id="wXNnlgpoWVMwmMimKvm5-37" value="触发方式1：定时任务，有更新执行下发" style="text;html=1;align=center;verticalAlign=middle;whiteSpace=wrap;rounded=0;" vertex="1" parent="1">
          <mxGeometry x="150" y="2725" width="170" height="30" as="geometry" />
        </mxCell>
        <mxCell id="wXNnlgpoWVMwmMimKvm5-40" value="5min" style="ellipse;shape=umlControl;whiteSpace=wrap;html=1;" vertex="1" parent="1">
          <mxGeometry x="100" y="2715" width="40" height="40" as="geometry" />
        </mxCell>
        <mxCell id="wXNnlgpoWVMwmMimKvm5-41" value="" style="shape=partialRectangle;whiteSpace=wrap;html=1;left=0;right=0;fillColor=#dae8fc;strokeWidth=4;strokeColor=#6c8ebf;" vertex="1" parent="1">
          <mxGeometry x="354" y="3050" width="120" height="60" as="geometry" />
        </mxCell>
        <mxCell id="wXNnlgpoWVMwmMimKvm5-42" value="5" style="ellipse;whiteSpace=wrap;html=1;aspect=fixed;fillColor=#dae8fc;strokeColor=#6c8ebf;" vertex="1" parent="1">
          <mxGeometry x="474" y="3065" width="30" height="30" as="geometry" />
        </mxCell>
        <mxCell id="wXNnlgpoWVMwmMimKvm5-43" value="调用go的二进制程序进行规则校验" style="text;html=1;align=center;verticalAlign=middle;whiteSpace=wrap;rounded=0;" vertex="1" parent="1">
          <mxGeometry x="354" y="3065" width="110" height="30" as="geometry" />
        </mxCell>
        <mxCell id="wXNnlgpoWVMwmMimKvm5-44" value="" style="endArrow=classic;html=1;rounded=0;strokeWidth=4;fillColor=#dae8fc;strokeColor=#6c8ebf;" edge="1" parent="1">
          <mxGeometry width="50" height="50" relative="1" as="geometry">
            <mxPoint x="330" y="3140" as="sourcePoint" />
            <mxPoint x="70" y="3140" as="targetPoint" />
          </mxGeometry>
        </mxCell>
        <mxCell id="wXNnlgpoWVMwmMimKvm5-45" value="6" style="ellipse;whiteSpace=wrap;html=1;aspect=fixed;fillColor=#dae8fc;strokeColor=#6c8ebf;" vertex="1" parent="1">
          <mxGeometry x="90" y="3095" width="30" height="30" as="geometry" />
        </mxCell>
        <mxCell id="wXNnlgpoWVMwmMimKvm5-46" value="返回校验结果" style="text;html=1;align=center;verticalAlign=middle;whiteSpace=wrap;rounded=0;" vertex="1" parent="1">
          <mxGeometry x="130" y="3095" width="110" height="30" as="geometry" />
        </mxCell>
        <mxCell id="wXNnlgpoWVMwmMimKvm5-47" value="" style="endArrow=classic;html=1;rounded=0;strokeWidth=4;fillColor=#f8cecc;strokeColor=#b85450;" edge="1" parent="1">
          <mxGeometry width="50" height="50" relative="1" as="geometry">
            <mxPoint x="340" y="3181" as="sourcePoint" />
            <mxPoint x="740" y="3180" as="targetPoint" />
          </mxGeometry>
        </mxCell>
        <mxCell id="wXNnlgpoWVMwmMimKvm5-48" value="7" style="ellipse;whiteSpace=wrap;html=1;aspect=fixed;fillColor=#dae8fc;strokeColor=#6c8ebf;" vertex="1" parent="1">
          <mxGeometry x="360" y="3140" width="30" height="30" as="geometry" />
        </mxCell>
        <mxCell id="wXNnlgpoWVMwmMimKvm5-49" value="规则校验成功，则执行下发异步任务" style="text;html=1;align=center;verticalAlign=middle;whiteSpace=wrap;rounded=0;" vertex="1" parent="1">
          <mxGeometry x="400" y="3140" width="100" height="30" as="geometry" />
        </mxCell>
      </root>
    </mxGraphModel>
  </diagram>
</mxfile>
